<?xml version="1.0" standalone="no"?>
<!DOCTYPE svg PUBLIC "-//W3C//DTD SVG 20010904//EN"
 "http://www.w3.org/TR/2001/REC-SVG-20010904/DTD/svg10.dtd">
<svg version="1.0" xmlns="http://www.w3.org/2000/svg"
 width="54.000000pt" height="56.000000pt" viewBox="0 0 54.000000 56.000000"
 preserveAspectRatio="xMidYMid meet">

<g transform="translate(0.000000,56.000000) scale(0.100000,-0.100000)"
fill="#000000" stroke="none">
<path d="M71 503 c8 -10 36 -43 62 -75 47 -55 49 -56 75 -42 35 18 56 18 96
-1 57 -27 80 -92 54 -150 -11 -25 -9 -29 43 -76 97 -88 89 -100 89 146 l0 215
-216 0 c-205 0 -216 -1 -203 -17z"/>
<path d="M20 257 l0 -207 206 0 206 0 -27 33 c-85 100 -81 97 -128 91 -82 -12
-146 54 -132 134 6 39 3 44 -97 131 l-28 24 0 -206z"/>
</g>
</svg>
